<?xml version="1.0" ?>
<svg xmlns="http://www.w3.org/2000/svg" width="1200" height="800" viewBox="0 0 1200 800" style="font-family: Arial, Helvetica, sans-serif;">
  <text x="600.0" y="40" font-size="22" text-anchor="middle" font-weight="bold">Stock Data Visualization App — UML Use Case Diagram</text>
  <rect x="280" y="100" width="640" height="600" rx="8" ry="8" fill="#f9fbff" stroke="#333" stroke-width="2"/>
  <text x="600.0" y="90" font-size="16" text-anchor="middle" font-weight="normal">System: Stock Data Visualization App</text>
  <circle cx="100" cy="160" r="16" fill="none" stroke="#333" stroke-width="2"/>
  <line x1="100" y1="176" x2="100" y2="216" stroke="#333" stroke-width="2"/>
  <line x1="75" y1="191" x2="125" y2="191" stroke="#333" stroke-width="2"/>
  <line x1="100" y1="216" x2="80" y2="246" stroke="#333" stroke-width="2"/>
  <line x1="100" y1="216" x2="120" y2="246" stroke="#333" stroke-width="2"/>
  <text x="100" y="266" font-size="14" text-anchor="middle" font-weight="normal">User</text>
  <circle cx="1100" cy="180" r="16" fill="none" stroke="#333" stroke-width="2"/>
  <line x1="1100" y1="196" x2="1100" y2="236" stroke="#333" stroke-width="2"/>
  <line x1="1075" y1="211" x2="1125" y2="211" stroke="#333" stroke-width="2"/>
  <line x1="1100" y1="236" x2="1080" y2="266" stroke="#333" stroke-width="2"/>
  <line x1="1100" y1="236" x2="1120" y2="266" stroke="#333" stroke-width="2"/>
  <text x="1100" y="286" font-size="14" text-anchor="middle" font-weight="normal">Alpha Vantage API</text>
  <circle cx="1100" cy="480" r="16" fill="none" stroke="#333" stroke-width="2"/>
  <line x1="1100" y1="496" x2="1100" y2="536" stroke="#333" stroke-width="2"/>
  <line x1="1075" y1="511" x2="1125" y2="511" stroke="#333" stroke-width="2"/>
  <line x1="1100" y1="536" x2="1080" y2="566" stroke="#333" stroke-width="2"/>
  <line x1="1100" y1="536" x2="1120" y2="566" stroke="#333" stroke-width="2"/>
  <text x="1100" y="586" font-size="14" text-anchor="middle" font-weight="normal">Default Web Browser</text>
  <ellipse cx="460" cy="170" rx="130" ry="35" fill="#fff" stroke="#333" stroke-width="2"/>
  <text x="460" y="170" font-size="14" text-anchor="middle" font-weight="normal">UC-01
Configure API Key</text>
  <ellipse cx="740" cy="170" rx="150" ry="35" fill="#fff" stroke="#333" stroke-width="2"/>
  <text x="740" y="170" font-size="14" text-anchor="middle" font-weight="normal">UC-11
View Help/About</text>
  <ellipse cx="460" cy="270" rx="140" ry="35" fill="#fff" stroke="#333" stroke-width="2"/>
  <text x="460" y="270" font-size="14" text-anchor="middle" font-weight="normal">UC-02
Enter Stock Symbol</text>
  <ellipse cx="740" cy="270" rx="160" ry="35" fill="#fff" stroke="#333" stroke-width="2"/>
  <text x="740" y="270" font-size="14" text-anchor="middle" font-weight="normal">UC-03
Select Time Series</text>
  <ellipse cx="460" cy="360" rx="140" ry="35" fill="#fff" stroke="#333" stroke-width="2"/>
  <text x="460" y="360" font-size="14" text-anchor="middle" font-weight="normal">UC-04
Select Chart Type</text>
  <ellipse cx="740" cy="360" rx="150" ry="35" fill="#fff" stroke="#333" stroke-width="2"/>
  <text x="740" y="360" font-size="14" text-anchor="middle" font-weight="normal">UC-05
Specify Date Range</text>
  <ellipse cx="460" cy="450" rx="140" ry="35" fill="#fff" stroke="#333" stroke-width="2"/>
  <text x="460" y="450" font-size="14" text-anchor="middle" font-weight="normal">UC-06
Validate Inputs</text>
  <ellipse cx="740" cy="450" rx="150" ry="35" fill="#fff" stroke="#333" stroke-width="2"/>
  <text x="740" y="450" font-size="14" text-anchor="middle" font-weight="normal">UC-07
Request Stock Data</text>
  <ellipse cx="460" cy="540" rx="160" ry="35" fill="#fff" stroke="#333" stroke-width="2"/>
  <text x="460" y="540" font-size="14" text-anchor="middle" font-weight="normal">UC-08
Filter/Transform Data</text>
  <ellipse cx="740" cy="540" rx="140" ry="35" fill="#fff" stroke="#333" stroke-width="2"/>
  <text x="740" y="540" font-size="14" text-anchor="middle" font-weight="normal">UC-09
Generate Chart</text>
  <ellipse cx="600" cy="630" rx="160" ry="35" fill="#fff" stroke="#333" stroke-width="2"/>
  <text x="600" y="630" font-size="14" text-anchor="middle" font-weight="normal">UC-10
Open Chart in Browser</text>
  <ellipse cx="840" cy="630" rx="130" ry="35" fill="#fff" stroke="#333" stroke-width="2"/>
  <text x="840" y="630" font-size="14" text-anchor="middle" font-weight="normal">UC-12
Exit Application</text>
  <line x1="125" y1="216" x2="330" y2="170" stroke="#333" stroke-width="2"/>
  <line x1="125" y1="216" x2="330" y2="270" stroke="#333" stroke-width="2"/>
  <line x1="125" y1="216" x2="610" y2="270" stroke="#333" stroke-width="2"/>
  <line x1="125" y1="216" x2="330" y2="360" stroke="#333" stroke-width="2"/>
  <line x1="125" y1="216" x2="610" y2="360" stroke="#333" stroke-width="2"/>
  <line x1="125" y1="216" x2="330" y2="450" stroke="#333" stroke-width="2"/>
  <line x1="125" y1="216" x2="470" y2="630" stroke="#333" stroke-width="2"/>
  <line x1="125" y1="216" x2="610" y2="170" stroke="#333" stroke-width="2"/>
  <line x1="125" y1="216" x2="710" y2="630" stroke="#333" stroke-width="2"/>
  <line x1="740" y1="395" x2="460" y2="415" stroke="#333" stroke-width="2"/>
  <text x="600.0" y="399.0" font-size="12" text-anchor="middle" font-weight="normal">&lt;&lt;include&gt;&gt;</text>
  <line x1="590" y1="450" x2="590" y2="450" stroke="#333" stroke-width="2"/>
  <text x="590.0" y="444.0" font-size="12" text-anchor="middle" font-weight="normal">&lt;&lt;include&gt;&gt;</text>
  <line x1="890" y1="450" x2="1060" y2="196" stroke="#333" stroke-width="2"/>
  <text x="975.0" y="315.0" font-size="12" text-anchor="middle" font-weight="normal">HTTP Request/Response</text>
  <line x1="620" y1="540" x2="600" y2="540" stroke="#333" stroke-width="2"/>
  <text x="610.0" y="534.0" font-size="12" text-anchor="middle" font-weight="normal">&lt;&lt;include&gt;&gt;</text>
  <line x1="740" y1="575" x2="600" y2="595" stroke="#333" stroke-width="2"/>
  <text x="670.0" y="579.0" font-size="12" text-anchor="middle" font-weight="normal">&lt;&lt;include&gt;&gt;</text>
  <line x1="760" y1="630" x2="1060" y2="496" stroke="#333" stroke-width="2"/>
  <text x="910.0" y="555.0" font-size="12" text-anchor="middle" font-weight="normal">Open HTML chart</text>
  <text x="600.0" y="780" font-size="12" text-anchor="middle" font-weight="normal">Traditional UML Use Case Diagram (actors, system boundary, use cases, associations, includes)</text>
</svg>
